<svg width="17" height="16" viewBox="0 0 17 16" fill="none" xmlns="http://www.w3.org/2000/svg">
<path fill-rule="evenodd" clip-rule="evenodd" d="M1.15358 5.13049H4.27211V15.999H1.15358V5.13049ZM2.63335 3.77103H2.61077C1.48189 3.77103 0.75 2.9402 0.75 1.88808C0.75 0.814445 1.50353 0 2.65499 0C3.8055 0 4.51294 0.812396 4.53551 1.885C4.53551 2.93712 3.8055 3.77103 2.63335 3.77103ZM16.75 16H13.2138V10.3747C13.2138 8.90255 12.6606 7.89858 11.4443 7.89858C10.5139 7.89858 9.99647 8.57575 9.75564 9.23038C9.66533 9.46395 9.67945 9.79075 9.67945 10.1186V16H6.17615C6.17615 16 6.22131 6.03611 6.17615 5.13049H9.67945V6.83622C9.88641 6.09041 11.0059 5.026 12.7923 5.026C15.0087 5.026 16.75 6.59034 16.75 9.95569V16Z"/>
</svg>
